# xmcd CD database file
#
# Track frame offsets:
#	183
#	19908
#	70383
#	90508
#	108595
#	156720
#	193558
#
# Disc length: 3209 seconds
#
# Revision: 0
# Processed by: cddbd v1.5PL3 Copyright (c) Steve Scherf et al.
# Submitted via: CDex 1.51
#
DISCID=5e0c8707
DTITLE=Hilton Ruiz - Piano Man
DYEAR=1991
DGENRE=Jazz
TTITLE0=One For Hakim
TTITLE1=Misty Thursday
TTITLE2=Med II
TTITLE3=Straight Street
TTITLE4=Big Foot
TTITLE5=Arrival
TTITLE6=Giant Steps
EXTD=YEAR: 1991
EXTT0=
EXTT1=
EXTT2=
EXTT3=
EXTT4=
EXTT5=
EXTT6=
PLAYORDER=
